<?xml version="1.0" encoding="UTF-8"?>
<!DOCTYPE svg PUBLIC "-//W3C//DTD SVG 1.1//EN" "http://www.w3.org/Graphics/SVG/1.1/DTD/svg11.dtd">
<!-- Creator: CorelDRAW X7 -->
<svg xmlns="http://www.w3.org/2000/svg" xml:space="preserve" width="117.325mm" height="7.0734mm" version="1.1" style="shape-rendering:geometricPrecision; text-rendering:geometricPrecision; image-rendering:optimizeQuality; fill-rule:evenodd; clip-rule:evenodd"
viewBox="0 0 13340 804"
 xmlns:xlink="http://www.w3.org/1999/xlink">
 <defs>
  <style type="text/css">
   <![CDATA[
    .str0 {stroke:#4A4A4A;stroke-width:22.7403}
    .str1 {stroke:#4A4A4A;stroke-width:17.0552}
    .fil0 {fill:#FF6600;fill-rule:nonzero}
    .fil1 {fill:#4A4A4A;fill-rule:nonzero}
   ]]>
  </style>
 </defs>
 <g id="Layer_x0020_1">
  <metadata id="CorelCorpID_0Corel-Layer"/>
  <path class="fil0" d="M11675 301c32,0 60,7 86,20 25,13 47,31 63,54 17,22 29,49 36,79 7,30 8,62 2,97 -5,35 -17,67 -34,97 -18,30 -38,55 -63,77 -24,21 -50,38 -79,50 -29,12 -58,18 -87,18l-755 0 31 -197 808 0 14 -94 -623 0c-30,0 -57,-6 -82,-18 -26,-13 -47,-29 -65,-51 -18,-22 -30,-48 -38,-78 -8,-30 -9,-63 -4,-98 5,-26 12,-50 22,-72 10,-22 23,-42 37,-60 15,-18 31,-34 49,-48 19,-14 38,-26 58,-35 20,-10 40,-17 61,-22 21,-5 42,-8 62,-8l728 0 -31 194 -795 0 -15 95 614 0z"/>
  <path class="fil0" d="M9132 0l698 0 -32 203 -765 0 -15 92 766 0 -32 204 -766 0 -13 85 765 0 -33 209 -700 0c-31,0 -60,-6 -86,-19 -26,-12 -48,-30 -66,-52 -19,-23 -32,-49 -40,-80 -8,-31 -9,-66 -3,-103l45 -286c6,-39 18,-75 35,-106 18,-31 39,-58 64,-80 24,-22 52,-38 82,-49 31,-12 63,-18 96,-18z"/>
  <path class="fil0" d="M9922 8l729 1c26,0 51,7 73,20 22,14 41,32 56,54 16,23 26,49 33,78 6,30 7,61 2,94 -4,24 -11,47 -21,71 -10,23 -23,45 -39,66 11,20 18,41 22,65 4,24 5,46 1,68l-42 268 -171 0 46 -294 -591 0 -46 294 -176 0 124 -785zm129 294l591 0 15 -95 -591 0 -15 95z"/>
  <path class="fil1" d="M2986 8l729 1c26,0 51,7 73,20 23,14 41,32 57,54 15,23 26,49 32,78 7,30 7,61 2,94 -4,24 -10,47 -21,71 -10,23 -23,45 -38,66 10,20 18,41 22,65 4,24 4,46 1,68l-43 268 -171 0 46 -294 -591 0 -46 294 -176 0 124 -785zm130 294l590 0 15 -95 -590 0 -15 95z"/>
  <path class="fil1" d="M2186 0l699 0 -32 203 -766 0 -14 92 765 0 -32 204 -765 0 -14 85 766 0 -33 209 -701 0c-30,0 -59,-6 -85,-19 -27,-12 -49,-30 -67,-52 -18,-23 -31,-49 -39,-80 -8,-31 -9,-66 -4,-103l46 -286c6,-39 18,-75 35,-106 17,-31 38,-58 63,-80 25,-22 52,-38 83,-49 31,-12 62,-18 95,-18z"/>
  <path class="fil0" d="M8595 6l345 0 -636 394 516 393 -350 0 -269 -204c-12,-9 -24,-18 -34,-27 -10,-9 -18,-19 -25,-29 -8,-10 -14,-21 -19,-33 -5,-12 -9,-26 -12,-41l-52 334 -186 0 124 -787 186 0 -54 339c9,-15 18,-28 27,-40 10,-13 20,-24 31,-35 12,-10 24,-20 38,-30 14,-10 30,-21 47,-31l323 -203z"/>
  <path class="fil0" d="M7921 7l-31 198 -775 0 -62 392 775 0 -31 196 -729 0c-28,0 -54,-6 -79,-17 -24,-12 -45,-28 -62,-48 -18,-20 -30,-45 -38,-73 -8,-28 -10,-59 -4,-93l41 -265c8,-49 21,-92 37,-128 17,-37 39,-67 64,-91 25,-24 55,-42 88,-53 33,-12 70,-18 110,-18l696 0z"/>
  <path class="fil0" d="M6205 13l492 0c28,0 53,7 77,20 23,14 42,32 58,55 15,23 26,50 33,80 7,30 7,62 2,95l-46 291c-3,22 -9,43 -18,63 -8,20 -19,39 -31,57 -12,17 -26,34 -42,48 -15,15 -32,27 -49,38 -18,10 -35,19 -54,24 -19,6 -37,9 -56,9l-513 0c-30,0 -57,-6 -81,-19 -24,-12 -44,-30 -59,-52 -16,-22 -26,-49 -32,-79 -6,-31 -7,-64 -1,-100l47 -298c5,-34 17,-66 35,-94 18,-28 39,-53 65,-73 25,-21 53,-37 83,-48 30,-12 61,-17 90,-17zm495 203l-591 0 -60 380 591 0 60 -380z"/>
  <path class="fil0" d="M5841 587l-33 206 -726 0c-26,0 -50,-7 -73,-20 -23,-13 -42,-31 -58,-53 -16,-22 -27,-48 -34,-77 -7,-30 -8,-60 -3,-92l86 -547 175 0 -93 583 759 0z"/>
  <path class="fil0" d="M4935 7l-31 198 -775 0 -62 392 775 0 -31 196 -729 0c-28,0 -54,-6 -78,-17 -25,-12 -46,-28 -63,-48 -17,-20 -30,-45 -38,-73 -8,-28 -9,-59 -4,-93l42 -265c7,-49 20,-92 37,-128 17,-37 38,-67 63,-91 25,-24 55,-42 88,-53 33,-12 70,-18 110,-18l696 0z"/>
  <path class="fil1" d="M1212 3l172 586 363 -589 191 0 -384 636c-14,23 -28,44 -42,63 -15,20 -30,36 -46,50 -16,14 -33,24 -51,32 -18,8 -38,12 -60,12 -24,0 -44,-5 -62,-14 -17,-10 -32,-23 -45,-40 -13,-16 -24,-36 -33,-58 -9,-22 -17,-46 -23,-71l-174 -607 194 0z"/>
  <path class="fil1" d="M325 13l491 0c28,0 53,7 77,20 23,14 42,32 58,55 15,23 26,50 33,80 7,30 7,62 2,95l-46 291c-3,22 -9,43 -18,63 -8,20 -18,39 -31,57 -12,17 -26,34 -42,48 -15,15 -32,27 -49,38 -17,10 -35,19 -54,24 -18,6 -37,9 -55,9l-514 0c-30,0 -57,-6 -81,-19 -24,-12 -44,-30 -59,-52 -16,-22 -26,-49 -32,-79 -6,-31 -7,-64 -1,-100l47 -298c6,-34 17,-66 35,-94 18,-28 40,-53 65,-73 25,-21 53,-37 83,-48 30,-12 61,-17 91,-17zm494 203l-591 0 -59 380 590 0 60 -380z"/>
  <path class="fil1 str0" d="M11985 737c-2,18 -11,32 -25,42 -12,9 -26,14 -41,14 -16,0 -29,-4 -39,-13 -11,-11 -15,-25 -13,-43 3,-17 11,-31 25,-41 13,-9 26,-13 41,-13 15,0 28,4 38,13 12,10 16,24 14,41z"/>
  <path class="fil1 str1" d="M12647 646c-13,98 -107,147 -281,147 -4,0 -11,0 -18,0 -8,-1 -17,-1 -27,-1 0,-1 -1,-1 -3,-1l-4 0 -7 0 -13 0 -19 0c-146,0 -212,-48 -199,-145l41 -303c3,-27 16,-40 38,-40 23,0 35,1 39,4 11,5 15,17 13,36l-41 303c-5,37 35,55 121,55l135 0c84,0 129,-18 134,-54l41 -304c3,-19 10,-31 23,-36 4,-3 18,-4 40,-4 22,0 32,13 28,40l-41 303z"/>
  <path class="fil1 str1" d="M13304 646c-13,98 -81,147 -204,147l-220 0c-48,0 -87,-11 -119,-31 -42,-27 -61,-63 -54,-111l8 -62c7,-51 34,-89 82,-114 35,-20 78,-30 127,-30l318 0c0,-17 -10,-30 -29,-38 -19,-9 -169,-13 -207,-13 -3,0 -7,0 -11,0 -5,0 -10,1 -16,1 0,0 -1,0 -4,0l-4 0 -7 0 -10 0c-22,0 -54,-17 -49,-51 3,-27 39,-39 61,-39 72,0 247,5 284,18 62,21 89,66 80,132l-26 191zm-85 -25c1,-5 2,-11 2,-18 1,-7 2,-15 3,-25 1,-10 2,-18 3,-25 1,-7 1,-13 2,-18l-320 0c-18,0 -38,4 -59,12 -28,11 -42,25 -45,42l-8 61c-2,18 9,32 34,42 17,7 36,11 58,11l224 0c33,0 57,-4 71,-12 18,-11 30,-34 35,-70z"/>
 </g>
</svg>
